# xmcd
#
# Track frame offsets: 
#        150
#        15975
#        32682
#        55199
#        70110
#        85710
#        103811
#        123008
#        144717
#        164646
#        181537
#        199524
#
# Disc length: 2907 seconds
#
# Revision: 0
# Processed by: cddbd v1.5.2PL0 Copyright (c) Steve Scherf et al.
# Submitted via: ExactAudioCopyFreeDBPlugin 1.0
#
DISCID=920b590c
DTITLE=Crissinger - Blues Expression
DYEAR=2015
DGENRE=Blues
TTITLE0=Celebration Blues
TTITLE1=Shake A Leg
TTITLE2=In Love With A Liar
TTITLE3=Caught In The Middle
TTITLE4=5000 Miles
TTITLE5=I Love To Eat
TTITLE6=My Kind Of Woman
TTITLE7=Blue Expression
TTITLE8=Love Your Soul
TTITLE9=Slice Of Life
TTITLE10=I Love You Baby
TTITLE11=Set Me Free
EXTD=
EXTT0=
EXTT1=
EXTT2=
EXTT3=
EXTT4=
EXTT5=
EXTT6=
EXTT7=
EXTT8=
EXTT9=
EXTT10=
EXTT11=
PLAYORDER=
